<svg xmlns="http://www.w3.org/2000/svg" xmlns:xlink="http://www.w3.org/1999/xlink" viewBox="0 0 327 200" width="327" height="200"><path d="M 31.000,88.000 C 34.000,87.500 33.979,87.252 37.000,87.000" stroke-width="4.926" stroke="black" fill="none" stroke-linecap="round"></path><path d="M 37.000,87.000 C 39.979,86.752 40.000,87.000 43.000,87.000" stroke-width="4.362" stroke="black" fill="none" stroke-linecap="round"></path><path d="M 43.000,87.000 C 47.000,87.000 47.064,87.562 51.000,87.000" stroke-width="3.915" stroke="black" fill="none" stroke-linecap="round"></path><path d="M 51.000,87.000 C 57.564,86.062 57.530,85.618 64.000,84.000" stroke-width="3.409" stroke="black" fill="none" stroke-linecap="round"></path><path d="M 64.000,84.000 C 69.530,82.618 69.569,82.715 75.000,81.000" stroke-width="3.379" stroke="black" fill="none" stroke-linecap="round"></path><path d="M 75.000,81.000 C 79.069,79.715 78.978,79.437 83.000,78.000" stroke-width="3.576" stroke="black" fill="none" stroke-linecap="round"></path><path d="M 83.000,78.000 C 85.978,76.937 86.196,77.402 89.000,76.000" stroke-width="3.927" stroke="black" fill="none" stroke-linecap="round"></path><path d="M 89.000,76.000 C 92.196,74.402 92.343,74.362 95.000,72.000" stroke-width="3.943" stroke="black" fill="none" stroke-linecap="round"></path><path d="M 95.000,72.000 C 96.843,70.362 96.719,70.135 98.000,68.000" stroke-width="4.177" stroke="black" fill="none" stroke-linecap="round"></path><path d="M 98.000,68.000 C 99.719,65.135 100.316,65.193 101.000,62.000" stroke-width="4.497" stroke="black" fill="none" stroke-linecap="round"></path><path d="M 101.000,62.000 C 101.816,58.193 101.305,57.970 101.000,54.000" stroke-width="4.499" stroke="black" fill="none" stroke-linecap="round"></path><path d="M 101.000,54.000 C 100.805,51.470 100.933,51.333 100.000,49.000" stroke-width="4.377" stroke="black" fill="none" stroke-linecap="round"></path><path d="M 100.000,49.000 C 98.933,46.333 98.615,46.423 97.000,44.000" stroke-width="4.243" stroke="black" fill="none" stroke-linecap="round"></path><path d="M 70.000,47.000 C 70.000,53.000 70.769,53.103 70.000,59.000" stroke-width="4.981" stroke="black" fill="none" stroke-linecap="round"></path><path d="M 70.000,59.000 C 69.269,64.603 68.596,64.528 67.000,70.000" stroke-width="3.658" stroke="black" fill="none" stroke-linecap="round"></path><path d="M 67.000,70.000 C 65.096,76.528 65.301,76.609 63.000,83.000" stroke-width="3.268" stroke="black" fill="none" stroke-linecap="round"></path><path d="M 63.000,83.000 C 60.801,89.109 60.368,88.949 58.000,95.000" stroke-width="3.318" stroke="black" fill="none" stroke-linecap="round"></path><path d="M 58.000,95.000 C 55.868,100.449 56.083,100.532 54.000,106.000" stroke-width="3.327" stroke="black" fill="none" stroke-linecap="round"></path><path d="M 54.000,106.000 C 52.083,111.032 52.185,111.083 50.000,116.000" stroke-width="3.408" stroke="black" fill="none" stroke-linecap="round"></path><path d="M 50.000,116.000 C 48.185,120.083 48.092,120.049 46.000,124.000" stroke-width="3.598" stroke="black" fill="none" stroke-linecap="round"></path><path d="M 46.000,124.000 C 43.592,128.549 43.422,128.459 41.000,133.000" stroke-width="3.531" stroke="black" fill="none" stroke-linecap="round"></path><path d="M 41.000,133.000 C 39.422,135.959 39.687,136.108 38.000,139.000" stroke-width="3.823" stroke="black" fill="none" stroke-linecap="round"></path><path d="M 38.000,139.000 C 36.187,142.108 36.488,142.512 34.000,145.000" stroke-width="3.911" stroke="black" fill="none" stroke-linecap="round"></path><path d="M 84.000,74.000 C 82.500,79.500 81.929,79.424 81.000,85.000" stroke-width="4.974" stroke="black" fill="none" stroke-linecap="round"></path><path d="M 81.000,85.000 C 80.429,88.424 81.000,88.500 81.000,92.000" stroke-width="4.237" stroke="black" fill="none" stroke-linecap="round"></path><path d="M 81.000,92.000 C 81.000,96.000 81.235,96.013 81.000,100.000" stroke-width="3.940" stroke="black" fill="none" stroke-linecap="round"></path><path d="M 81.000,100.000 C 80.735,104.513 80.251,104.486 80.000,109.000" stroke-width="3.747" stroke="black" fill="none" stroke-linecap="round"></path><path d="M 80.000,109.000 C 79.751,113.486 80.000,113.500 80.000,118.000" stroke-width="3.698" stroke="black" fill="none" stroke-linecap="round"></path><path d="M 80.000,118.000 C 80.000,121.000 80.000,121.000 80.000,124.000" stroke-width="3.965" stroke="black" fill="none" stroke-linecap="round"></path><path d="M 80.000,124.000 C 80.000,127.000 80.000,127.000 80.000,130.000" stroke-width="4.052" stroke="black" fill="none" stroke-linecap="round"></path><path d="M 80.000,130.000 C 80.000,133.000 78.500,134.500 80.000,136.000" stroke-width="4.508" stroke="black" fill="none" stroke-linecap="round"></path><path d="M 80.000,136.000 C 81.500,137.500 83.000,136.000 86.000,136.000" stroke-width="4.342" stroke="black" fill="none" stroke-linecap="round"></path><path d="M 86.000,136.000 C 90.000,136.000 90.223,136.944 94.000,136.000" stroke-width="3.910" stroke="black" fill="none" stroke-linecap="round"></path><path d="M 94.000,136.000 C 98.223,134.944 98.065,134.119 102.000,132.000" stroke-width="3.694" stroke="black" fill="none" stroke-linecap="round"></path><path d="M 102.000,132.000 C 104.565,130.619 104.716,130.777 107.000,129.000" stroke-width="3.984" stroke="black" fill="none" stroke-linecap="round"></path><path d="M 107.000,129.000 C 109.216,127.277 109.508,127.344 111.000,125.000" stroke-width="4.147" stroke="black" fill="none" stroke-linecap="round"></path><path d="M 111.000,125.000 C 113.008,121.844 113.481,121.630 114.000,118.000" stroke-width="4.434" stroke="black" fill="none" stroke-linecap="round"></path><path d="M 114.000,118.000 C 114.481,114.630 114.519,114.038 113.000,111.000" stroke-width="4.588" stroke="black" fill="none" stroke-linecap="round"></path><circle r="1.5" cx="109" cy="29" fill="black"></circle><path d="M 156.000,29.000 C 158.500,28.500 158.475,28.252 161.000,28.000" stroke-width="5.212" stroke="black" fill="none" stroke-linecap="round"></path><path d="M 161.000,28.000 C 163.475,27.752 163.519,28.226 166.000,28.000" stroke-width="4.574" stroke="black" fill="none" stroke-linecap="round"></path><path d="M 166.000,28.000 C 169.019,27.726 172.000,25.284 172.000,27.000" stroke-width="4.725" stroke="black" fill="none" stroke-linecap="round"></path><path d="M 172.000,27.000 C 172.000,30.784 169.613,33.379 166.000,39.000" stroke-width="4.806" stroke="black" fill="none" stroke-linecap="round"></path><path d="M 166.000,39.000 C 160.613,47.379 159.538,46.692 154.000,55.000" stroke-width="3.146" stroke="black" fill="none" stroke-linecap="round"></path><path d="M 154.000,55.000 C 148.538,63.192 148.920,63.454 144.000,72.000" stroke-width="2.746" stroke="black" fill="none" stroke-linecap="round"></path><path d="M 144.000,72.000 C 139.420,79.954 138.475,79.603 135.000,88.000" stroke-width="2.773" stroke="black" fill="none" stroke-linecap="round"></path><path d="M 135.000,88.000 C 132.475,94.103 133.557,94.514 132.000,101.000" stroke-width="3.028" stroke="black" fill="none" stroke-linecap="round"></path><path d="M 132.000,101.000 C 130.557,107.014 129.868,106.922 129.000,113.000" stroke-width="3.184" stroke="black" fill="none" stroke-linecap="round"></path><path d="M 129.000,113.000 C 128.368,117.422 129.000,117.500 129.000,122.000" stroke-width="3.514" stroke="black" fill="none" stroke-linecap="round"></path><path d="M 129.000,122.000 C 129.000,125.000 129.000,125.000 129.000,128.000" stroke-width="3.941" stroke="black" fill="none" stroke-linecap="round"></path><path d="M 129.000,128.000 C 129.000,131.000 129.000,134.750 129.000,134.000" stroke-width="4.494" stroke="black" fill="none" stroke-linecap="round"></path><path d="M 129.000,134.000 C 129.000,132.750 128.505,128.951 129.000,124.000" stroke-width="4.718" stroke="black" fill="none" stroke-linecap="round"></path><path d="M 129.000,124.000 C 129.505,118.951 129.640,118.897 131.000,114.000" stroke-width="3.668" stroke="black" fill="none" stroke-linecap="round"></path><path d="M 131.000,114.000 C 132.140,109.897 132.021,109.761 134.000,106.000" stroke-width="3.721" stroke="black" fill="none" stroke-linecap="round"></path><path d="M 134.000,106.000 C 137.021,100.261 137.144,100.233 141.000,95.000" stroke-width="3.328" stroke="black" fill="none" stroke-linecap="round"></path><path d="M 141.000,95.000 C 144.144,90.733 144.385,90.893 148.000,87.000" stroke-width="3.364" stroke="black" fill="none" stroke-linecap="round"></path><path d="M 148.000,87.000 C 150.885,83.893 151.000,84.000 154.000,81.000" stroke-width="3.627" stroke="black" fill="none" stroke-linecap="round"></path><path d="M 154.000,81.000 C 156.500,78.500 156.196,78.103 159.000,76.000" stroke-width="3.905" stroke="black" fill="none" stroke-linecap="round"></path><path d="M 159.000,76.000 C 162.196,73.603 162.544,74.074 166.000,72.000" stroke-width="3.842" stroke="black" fill="none" stroke-linecap="round"></path><path d="M 166.000,72.000 C 170.044,69.574 169.809,69.095 174.000,67.000" stroke-width="3.624" stroke="black" fill="none" stroke-linecap="round"></path><path d="M 174.000,67.000 C 176.809,65.595 176.921,65.513 180.000,65.000" stroke-width="3.900" stroke="black" fill="none" stroke-linecap="round"></path><path d="M 180.000,65.000 C 182.921,64.513 183.000,65.000 186.000,65.000" stroke-width="4.032" stroke="black" fill="none" stroke-linecap="round"></path><path d="M 186.000,65.000 C 189.000,65.000 189.027,64.730 192.000,65.000" stroke-width="4.119" stroke="black" fill="none" stroke-linecap="round"></path><path d="M 192.000,65.000 C 194.527,65.230 194.783,64.892 197.000,66.000" stroke-width="4.263" stroke="black" fill="none" stroke-linecap="round"></path><path d="M 197.000,66.000 C 199.783,67.392 200.362,67.426 202.000,70.000" stroke-width="4.088" stroke="black" fill="none" stroke-linecap="round"></path><path d="M 202.000,70.000 C 203.862,72.926 203.673,73.406 204.000,77.000" stroke-width="3.982" stroke="black" fill="none" stroke-linecap="round"></path><path d="M 204.000,77.000 C 204.673,84.406 204.719,84.567 204.000,92.000" stroke-width="3.295" stroke="black" fill="none" stroke-linecap="round"></path><path d="M 204.000,92.000 C 203.219,100.067 202.739,100.052 201.000,108.000" stroke-width="2.988" stroke="black" fill="none" stroke-linecap="round"></path><path d="M 201.000,108.000 C 199.239,116.052 199.069,116.018 197.000,124.000" stroke-width="2.894" stroke="black" fill="none" stroke-linecap="round"></path><path d="M 197.000,124.000 C 195.569,129.518 195.234,129.445 194.000,135.000" stroke-width="3.209" stroke="black" fill="none" stroke-linecap="round"></path><path d="M 194.000,135.000 C 193.234,138.445 193.293,138.485 193.000,142.000" stroke-width="3.708" stroke="black" fill="none" stroke-linecap="round"></path><path d="M 193.000,142.000 C 192.793,144.485 193.226,144.519 193.000,147.000" stroke-width="4.133" stroke="black" fill="none" stroke-linecap="round"></path><path d="M 193.000,147.000 C 192.726,150.019 192.274,149.981 192.000,153.000" stroke-width="4.140" stroke="black" fill="none" stroke-linecap="round"></path><path d="M 182.000,34.000 C 179.000,38.000 178.103,37.561 176.000,42.000" stroke-width="5.197" stroke="black" fill="none" stroke-linecap="round"></path><path d="M 176.000,42.000 C 173.603,47.061 174.676,47.553 173.000,53.000" stroke-width="3.831" stroke="black" fill="none" stroke-linecap="round"></path><path d="M 173.000,53.000 C 170.676,60.553 170.433,60.478 168.000,68.000" stroke-width="3.205" stroke="black" fill="none" stroke-linecap="round"></path><path d="M 168.000,68.000 C 164.933,77.478 165.000,77.500 162.000,87.000" stroke-width="2.748" stroke="black" fill="none" stroke-linecap="round"></path><path d="M 162.000,87.000 C 159.000,96.500 158.409,96.362 156.000,106.000" stroke-width="2.635" stroke="black" fill="none" stroke-linecap="round"></path><path d="M 156.000,106.000 C 154.409,112.362 154.888,112.485 154.000,119.000" stroke-width="2.989" stroke="black" fill="none" stroke-linecap="round"></path><path d="M 154.000,119.000 C 153.388,123.485 153.238,123.485 153.000,128.000" stroke-width="3.729" stroke="black" fill="none" stroke-linecap="round"></path><path d="M 153.000,128.000 C 152.738,132.985 152.480,137.740 153.000,138.000" stroke-width="3.538" stroke="black" fill="none" stroke-linecap="round"></path><path d="M 153.000,138.000 C 153.480,138.240 154.619,133.568 155.000,129.000" stroke-width="4.533" stroke="black" fill="none" stroke-linecap="round"></path><path d="M 155.000,129.000 C 155.619,121.568 156.482,121.116 155.000,114.000" stroke-width="3.462" stroke="black" fill="none" stroke-linecap="round"></path><path d="M 155.000,114.000 C 153.982,109.116 152.964,109.150 150.000,105.000" stroke-width="3.491" stroke="black" fill="none" stroke-linecap="round"></path><path d="M 150.000,105.000 C 147.964,102.150 144.752,102.228 145.000,100.000" stroke-width="3.768" stroke="black" fill="none" stroke-linecap="round"></path><path d="M 145.000,100.000 C 145.252,97.728 147.851,96.572 151.000,96.000" stroke-width="4.690" stroke="black" fill="none" stroke-linecap="round"></path><path d="M 151.000,96.000 C 153.351,95.572 153.407,97.481 156.000,98.000" stroke-width="4.389" stroke="black" fill="none" stroke-linecap="round"></path><path d="M 156.000,98.000 C 158.407,98.481 160.538,96.846 161.000,98.000" stroke-width="4.359" stroke="black" fill="none" stroke-linecap="round"></path><path d="M 161.000,98.000 C 161.538,99.346 156.746,102.642 158.000,103.000" stroke-width="5.012" stroke="black" fill="none" stroke-linecap="round"></path><path d="M 158.000,103.000 C 160.246,103.642 163.272,102.101 168.000,100.000" stroke-width="5.078" stroke="black" fill="none" stroke-linecap="round"></path><path d="M 168.000,100.000 C 172.272,98.101 171.909,97.338 176.000,95.000" stroke-width="3.959" stroke="black" fill="none" stroke-linecap="round"></path><path d="M 176.000,95.000 C 178.909,93.338 178.836,92.974 182.000,92.000" stroke-width="4.011" stroke="black" fill="none" stroke-linecap="round"></path><path d="M 182.000,92.000 C 185.336,90.974 187.257,89.838 189.000,91.000" stroke-width="4.410" stroke="black" fill="none" stroke-linecap="round"></path><path d="M 189.000,91.000 C 190.257,91.838 189.297,93.893 188.000,96.000" stroke-width="4.945" stroke="black" fill="none" stroke-linecap="round"></path><path d="M 188.000,96.000 C 185.297,100.393 184.222,99.787 181.000,104.000" stroke-width="3.803" stroke="black" fill="none" stroke-linecap="round"></path><path d="M 181.000,104.000 C 177.722,108.287 177.924,108.452 175.000,113.000" stroke-width="3.479" stroke="black" fill="none" stroke-linecap="round"></path><path d="M 175.000,113.000 C 173.424,115.452 172.808,115.308 172.000,118.000" stroke-width="3.947" stroke="black" fill="none" stroke-linecap="round"></path><path d="M 172.000,118.000 C 171.308,120.308 170.636,121.864 172.000,123.000" stroke-width="4.548" stroke="black" fill="none" stroke-linecap="round"></path><path d="M 172.000,123.000 C 173.636,124.364 175.000,123.000 178.000,123.000" stroke-width="4.723" stroke="black" fill="none" stroke-linecap="round"></path><path d="M 178.000,123.000 C 183.500,123.000 183.535,123.455 189.000,123.000" stroke-width="3.581" stroke="black" fill="none" stroke-linecap="round"></path><path d="M 189.000,123.000 C 195.535,122.455 195.546,122.241 202.000,121.000" stroke-width="3.284" stroke="black" fill="none" stroke-linecap="round"></path><path d="M 202.000,121.000 C 208.546,119.741 208.514,119.557 215.000,118.000" stroke-width="3.190" stroke="black" fill="none" stroke-linecap="round"></path><path d="M 285.000,33.000 C 281.500,37.500 281.500,37.500 278.000,42.000" stroke-width="5.010" stroke="black" fill="none" stroke-linecap="round"></path><path d="M 278.000,42.000 C 274.500,46.500 274.222,46.314 271.000,51.000" stroke-width="3.734" stroke="black" fill="none" stroke-linecap="round"></path><path d="M 271.000,51.000 C 268.722,54.314 268.681,54.357 267.000,58.000" stroke-width="3.738" stroke="black" fill="none" stroke-linecap="round"></path><path d="M 267.000,58.000 C 265.681,60.857 266.000,61.000 265.000,64.000" stroke-width="3.984" stroke="black" fill="none" stroke-linecap="round"></path><path d="M 265.000,64.000 C 264.000,67.000 264.080,67.029 263.000,70.000" stroke-width="4.064" stroke="black" fill="none" stroke-linecap="round"></path><path d="M 263.000,70.000 C 262.080,72.529 261.770,72.432 261.000,75.000" stroke-width="4.207" stroke="black" fill="none" stroke-linecap="round"></path><path d="M 261.000,75.000 C 260.270,77.432 261.500,78.500 260.000,80.000" stroke-width="4.697" stroke="black" fill="none" stroke-linecap="round"></path><path d="M 260.000,80.000 C 258.500,81.500 257.281,81.702 255.000,81.000" stroke-width="4.933" stroke="black" fill="none" stroke-linecap="round"></path><path d="M 255.000,81.000 C 250.781,79.702 250.922,78.614 247.000,76.000" stroke-width="4.528" stroke="black" fill="none" stroke-linecap="round"></path><path d="M 247.000,76.000 C 244.922,74.614 245.180,74.189 243.000,73.000" stroke-width="4.439" stroke="black" fill="none" stroke-linecap="round"></path><path d="M 243.000,73.000 C 239.680,71.189 239.515,71.464 236.000,70.000" stroke-width="4.548" stroke="black" fill="none" stroke-linecap="round"></path><path d="M 236.000,70.000 C 233.515,68.964 231.244,69.463 231.000,68.000" stroke-width="4.906" stroke="black" fill="none" stroke-linecap="round"></path><path d="M 231.000,68.000 C 230.744,66.463 232.431,64.979 235.000,64.000" stroke-width="5.008" stroke="black" fill="none" stroke-linecap="round"></path><path d="M 235.000,64.000 C 242.931,60.979 243.496,61.984 252.000,60.000" stroke-width="3.278" stroke="black" fill="none" stroke-linecap="round"></path><path d="M 252.000,60.000 C 258.496,58.484 258.436,57.938 265.000,57.000" stroke-width="3.188" stroke="black" fill="none" stroke-linecap="round"></path><path d="M 265.000,57.000 C 268.936,56.438 269.000,57.000 273.000,57.000" stroke-width="3.562" stroke="black" fill="none" stroke-linecap="round"></path><path d="M 273.000,57.000 C 276.000,57.000 276.000,57.000 279.000,57.000" stroke-width="3.959" stroke="black" fill="none" stroke-linecap="round"></path><path d="M 279.000,57.000 C 282.000,57.000 282.000,57.000 285.000,57.000" stroke-width="4.096" stroke="black" fill="none" stroke-linecap="round"></path><path d="M 285.000,57.000 C 287.500,57.000 288.315,55.796 290.000,57.000" stroke-width="4.630" stroke="black" fill="none" stroke-linecap="round"></path><path d="M 290.000,57.000 C 291.815,58.296 290.043,60.913 292.000,62.000" stroke-width="4.921" stroke="black" fill="none" stroke-linecap="round"></path><path d="M 229.000,116.000 C 231.500,115.500 231.470,115.195 234.000,115.000" stroke-width="4.694" stroke="black" fill="none" stroke-linecap="round"></path><path d="M 234.000,115.000 C 237.970,114.695 238.000,115.000 242.000,115.000" stroke-width="4.595" stroke="black" fill="none" stroke-linecap="round"></path><path d="M 242.000,115.000 C 245.000,115.000 245.016,115.230 248.000,115.000" stroke-width="4.230" stroke="black" fill="none" stroke-linecap="round"></path><path d="M 248.000,115.000 C 251.516,114.730 251.604,114.906 255.000,114.000" stroke-width="4.094" stroke="black" fill="none" stroke-linecap="round"></path><path d="M 255.000,114.000 C 259.104,112.906 259.215,112.892 263.000,111.000" stroke-width="3.842" stroke="black" fill="none" stroke-linecap="round"></path><path d="M 263.000,111.000 C 265.215,109.892 265.246,109.754 267.000,108.000" stroke-width="4.182" stroke="black" fill="none" stroke-linecap="round"></path><path d="M 267.000,108.000 C 269.246,105.754 269.370,105.716 271.000,103.000" stroke-width="4.065" stroke="black" fill="none" stroke-linecap="round"></path><path d="M 271.000,103.000 C 272.370,100.716 272.296,100.583 273.000,98.000" stroke-width="4.165" stroke="black" fill="none" stroke-linecap="round"></path><path d="M 273.000,98.000 C 273.796,95.083 275.406,91.297 274.000,92.000" stroke-width="4.572" stroke="black" fill="none" stroke-linecap="round"></path><path d="M 274.000,92.000 C 270.406,93.797 268.211,97.241 263.000,103.000" stroke-width="4.549" stroke="black" fill="none" stroke-linecap="round"></path><path d="M 263.000,103.000 C 258.711,107.741 258.597,107.724 255.000,113.000" stroke-width="3.519" stroke="black" fill="none" stroke-linecap="round"></path><path d="M 255.000,113.000 C 251.097,118.724 251.480,118.989 248.000,125.000" stroke-width="3.271" stroke="black" fill="none" stroke-linecap="round"></path><path d="M 248.000,125.000 C 245.980,128.489 245.896,128.444 244.000,132.000" stroke-width="3.586" stroke="black" fill="none" stroke-linecap="round"></path><path d="M 244.000,132.000 C 241.896,135.944 242.809,136.879 240.000,140.000" stroke-width="4.135" stroke="black" fill="none" stroke-linecap="round"></path><path d="M 240.000,140.000 C 238.309,141.879 237.593,141.481 235.000,142.000" stroke-width="4.602" stroke="black" fill="none" stroke-linecap="round"></path><path d="M 235.000,142.000 C 232.593,142.481 232.500,142.000 230.000,142.000" stroke-width="4.460" stroke="black" fill="none" stroke-linecap="round"></path><path d="M 230.000,142.000 C 227.500,142.000 227.475,141.752 225.000,142.000" stroke-width="4.337" stroke="black" fill="none" stroke-linecap="round"></path><path d="M 225.000,142.000 C 222.475,142.252 222.514,142.581 220.000,143.000" stroke-width="4.330" stroke="black" fill="none" stroke-linecap="round"></path><path d="M 220.000,143.000 C 216.514,143.581 213.581,144.000 213.000,144.000" stroke-width="4.537" stroke="black" fill="none" stroke-linecap="round"></path><path d="M 213.000,144.000 C 212.581,144.000 215.494,143.470 218.000,143.000" stroke-width="4.999" stroke="black" fill="none" stroke-linecap="round"></path><path d="M 218.000,143.000 C 223.494,141.970 223.493,141.958 229.000,141.000" stroke-width="3.684" stroke="black" fill="none" stroke-linecap="round"></path><path d="M 229.000,141.000 C 234.993,139.958 234.976,139.821 241.000,139.000" stroke-width="3.449" stroke="black" fill="none" stroke-linecap="round"></path><path d="M 241.000,139.000 C 245.976,138.321 245.989,138.278 251.000,138.000" stroke-width="3.392" stroke="black" fill="none" stroke-linecap="round"></path><path d="M 251.000,138.000 C 254.989,137.778 255.000,138.000 259.000,138.000" stroke-width="3.635" stroke="black" fill="none" stroke-linecap="round"></path><path d="M 259.000,138.000 C 263.000,138.000 263.000,138.000 267.000,138.000" stroke-width="3.766" stroke="black" fill="none" stroke-linecap="round"></path><path d="M 267.000,138.000 C 270.000,138.000 270.000,138.000 273.000,138.000" stroke-width="3.988" stroke="black" fill="none" stroke-linecap="round"></path><path d="M 273.000,138.000 C 276.000,138.000 276.000,138.000 279.000,138.000" stroke-width="4.105" stroke="black" fill="none" stroke-linecap="round"></path><path d="M 279.000,138.000 C 281.500,138.000 281.525,137.752 284.000,138.000" stroke-width="4.271" stroke="black" fill="none" stroke-linecap="round"></path><path d="M 284.000,138.000 C 286.525,138.252 286.529,138.382 289.000,139.000" stroke-width="4.267" stroke="black" fill="none" stroke-linecap="round"></path></svg>