<svg xmlns="http://www.w3.org/2000/svg" viewBox="0 0 327 200" width="327" height="200"><path d="M31 88c3-.5 2.979-.748 6-1" stroke-width="4.926" stroke="#000" fill="none" stroke-linecap="round"/><path d="M37 87c2.979-.248 3 0 6 0" stroke-width="4.362" stroke="#000" fill="none" stroke-linecap="round"/><path d="M43 87c4 0 4.064.562 8 0" stroke-width="3.915" stroke="#000" fill="none" stroke-linecap="round"/><path d="M51 87c6.564-.938 6.53-1.382 13-3" stroke-width="3.409" stroke="#000" fill="none" stroke-linecap="round"/><path d="M64 84c5.53-1.382 5.569-1.285 11-3" stroke-width="3.379" stroke="#000" fill="none" stroke-linecap="round"/><path d="M75 81c4.069-1.285 3.978-1.563 8-3" stroke-width="3.576" stroke="#000" fill="none" stroke-linecap="round"/><path d="M83 78c2.978-1.063 3.196-.598 6-2" stroke-width="3.927" stroke="#000" fill="none" stroke-linecap="round"/><path d="M89 76c3.196-1.598 3.343-1.638 6-4" stroke-width="3.943" stroke="#000" fill="none" stroke-linecap="round"/><path d="M95 72c1.843-1.638 1.719-1.865 3-4" stroke-width="4.177" stroke="#000" fill="none" stroke-linecap="round"/><path d="M98 68c1.719-2.865 2.316-2.807 3-6" stroke-width="4.497" stroke="#000" fill="none" stroke-linecap="round"/><path d="M101 62c.816-3.807.305-4.03 0-8" stroke-width="4.499" stroke="#000" fill="none" stroke-linecap="round"/><path d="M101 54c-.195-2.53-.067-2.667-1-5" stroke-width="4.377" stroke="#000" fill="none" stroke-linecap="round"/><path d="M100 49c-1.067-2.667-1.385-2.577-3-5" stroke-width="4.243" stroke="#000" fill="none" stroke-linecap="round"/><path d="M70 47c0 6 .769 6.103 0 12" stroke-width="4.981" stroke="#000" fill="none" stroke-linecap="round"/><path d="M70 59c-.731 5.603-1.404 5.528-3 11" stroke-width="3.658" stroke="#000" fill="none" stroke-linecap="round"/><path d="M67 70c-1.904 6.528-1.699 6.609-4 13" stroke-width="3.268" stroke="#000" fill="none" stroke-linecap="round"/><path d="M63 83c-2.199 6.109-2.632 5.949-5 12" stroke-width="3.318" stroke="#000" fill="none" stroke-linecap="round"/><path d="M58 95c-2.132 5.449-1.917 5.532-4 11" stroke-width="3.327" stroke="#000" fill="none" stroke-linecap="round"/><path d="M54 106c-1.917 5.032-1.815 5.083-4 10" stroke-width="3.408" stroke="#000" fill="none" stroke-linecap="round"/><path d="M50 116c-1.815 4.083-1.908 4.049-4 8" stroke-width="3.598" stroke="#000" fill="none" stroke-linecap="round"/><path d="M46 124c-2.408 4.549-2.578 4.459-5 9" stroke-width="3.531" stroke="#000" fill="none" stroke-linecap="round"/><path d="M41 133c-1.578 2.959-1.313 3.108-3 6" stroke-width="3.823" stroke="#000" fill="none" stroke-linecap="round"/><path d="M38 139c-1.813 3.108-1.512 3.512-4 6" stroke-width="3.911" stroke="#000" fill="none" stroke-linecap="round"/><path d="M84 74c-1.5 5.5-2.071 5.424-3 11" stroke-width="4.974" stroke="#000" fill="none" stroke-linecap="round"/><path d="M81 85c-.571 3.424 0 3.5 0 7" stroke-width="4.237" stroke="#000" fill="none" stroke-linecap="round"/><path d="M81 92c0 4 .235 4.013 0 8" stroke-width="3.94" stroke="#000" fill="none" stroke-linecap="round"/><path d="M81 100c-.265 4.513-.749 4.486-1 9" stroke-width="3.747" stroke="#000" fill="none" stroke-linecap="round"/><path d="M80 109c-.249 4.486 0 4.5 0 9" stroke-width="3.698" stroke="#000" fill="none" stroke-linecap="round"/><path d="M80 118v6" stroke-width="3.965" stroke="#000" fill="none" stroke-linecap="round"/><path d="M80 124v6" stroke-width="4.052" stroke="#000" fill="none" stroke-linecap="round"/><path d="M80 130c0 3-1.5 4.5 0 6" stroke-width="4.508" stroke="#000" fill="none" stroke-linecap="round"/><path d="M80 136c1.5 1.5 3 0 6 0" stroke-width="4.342" stroke="#000" fill="none" stroke-linecap="round"/><path d="M86 136c4 0 4.223.944 8 0" stroke-width="3.91" stroke="#000" fill="none" stroke-linecap="round"/><path d="M94 136c4.223-1.056 4.065-1.881 8-4" stroke-width="3.694" stroke="#000" fill="none" stroke-linecap="round"/><path d="M102 132c2.565-1.381 2.716-1.223 5-3" stroke-width="3.984" stroke="#000" fill="none" stroke-linecap="round"/><path d="M107 129c2.216-1.723 2.508-1.656 4-4" stroke-width="4.147" stroke="#000" fill="none" stroke-linecap="round"/><path d="M111 125c2.008-3.156 2.481-3.37 3-7" stroke-width="4.434" stroke="#000" fill="none" stroke-linecap="round"/><path d="M114 118c.481-3.37.519-3.962-1-7" stroke-width="4.588" stroke="#000" fill="none" stroke-linecap="round"/><circle r="1.5" cx="109" cy="29"/><path d="M156 29c2.5-.5 2.475-.748 5-1" stroke-width="5.212" stroke="#000" fill="none" stroke-linecap="round"/><path d="M161 28c2.475-.248 2.519.226 5 0" stroke-width="4.574" stroke="#000" fill="none" stroke-linecap="round"/><path d="M166 28c3.019-.274 6-2.716 6-1" stroke-width="4.725" stroke="#000" fill="none" stroke-linecap="round"/><path d="M172 27c0 3.784-2.387 6.379-6 12" stroke-width="4.806" stroke="#000" fill="none" stroke-linecap="round"/><path d="M166 39c-5.387 8.379-6.462 7.692-12 16" stroke-width="3.146" stroke="#000" fill="none" stroke-linecap="round"/><path d="M154 55c-5.462 8.192-5.08 8.454-10 17" stroke-width="2.746" stroke="#000" fill="none" stroke-linecap="round"/><path d="M144 72c-4.58 7.954-5.525 7.603-9 16" stroke-width="2.773" stroke="#000" fill="none" stroke-linecap="round"/><path d="M135 88c-2.525 6.103-1.443 6.514-3 13" stroke-width="3.028" stroke="#000" fill="none" stroke-linecap="round"/><path d="M132 101c-1.443 6.014-2.132 5.922-3 12" stroke-width="3.184" stroke="#000" fill="none" stroke-linecap="round"/><path d="M129 113c-.632 4.422 0 4.5 0 9" stroke-width="3.514" stroke="#000" fill="none" stroke-linecap="round"/><path d="M129 122v6" stroke-width="3.941" stroke="#000" fill="none" stroke-linecap="round"/><path d="M129 128v6" stroke-width="4.494" stroke="#000" fill="none" stroke-linecap="round"/><path d="M129 134c0-1.25-.495-5.049 0-10" stroke-width="4.718" stroke="#000" fill="none" stroke-linecap="round"/><path d="M129 124c.505-5.049.64-5.103 2-10" stroke-width="3.668" stroke="#000" fill="none" stroke-linecap="round"/><path d="M131 114c1.14-4.103 1.021-4.239 3-8" stroke-width="3.721" stroke="#000" fill="none" stroke-linecap="round"/><path d="M134 106c3.021-5.739 3.144-5.767 7-11" stroke-width="3.328" stroke="#000" fill="none" stroke-linecap="round"/><path d="M141 95c3.144-4.267 3.385-4.107 7-8" stroke-width="3.364" stroke="#000" fill="none" stroke-linecap="round"/><path d="M148 87c2.885-3.107 3-3 6-6" stroke-width="3.627" stroke="#000" fill="none" stroke-linecap="round"/><path d="M154 81c2.5-2.5 2.196-2.897 5-5" stroke-width="3.905" stroke="#000" fill="none" stroke-linecap="round"/><path d="M159 76c3.196-2.397 3.544-1.926 7-4" stroke-width="3.842" stroke="#000" fill="none" stroke-linecap="round"/><path d="M166 72c4.044-2.426 3.809-2.905 8-5" stroke-width="3.624" stroke="#000" fill="none" stroke-linecap="round"/><path d="M174 67c2.809-1.405 2.921-1.487 6-2" stroke-width="3.9" stroke="#000" fill="none" stroke-linecap="round"/><path d="M180 65c2.921-.487 3 0 6 0" stroke-width="4.032" stroke="#000" fill="none" stroke-linecap="round"/><path d="M186 65c3 0 3.027-.27 6 0" stroke-width="4.119" stroke="#000" fill="none" stroke-linecap="round"/><path d="M192 65c2.527.23 2.783-.108 5 1" stroke-width="4.263" stroke="#000" fill="none" stroke-linecap="round"/><path d="M197 66c2.783 1.392 3.362 1.426 5 4" stroke-width="4.088" stroke="#000" fill="none" stroke-linecap="round"/><path d="M202 70c1.862 2.926 1.673 3.406 2 7" stroke-width="3.982" stroke="#000" fill="none" stroke-linecap="round"/><path d="M204 77c.673 7.406.719 7.567 0 15" stroke-width="3.295" stroke="#000" fill="none" stroke-linecap="round"/><path d="M204 92c-.781 8.067-1.261 8.052-3 16" stroke-width="2.988" stroke="#000" fill="none" stroke-linecap="round"/><path d="M201 108c-1.761 8.052-1.931 8.018-4 16" stroke-width="2.894" stroke="#000" fill="none" stroke-linecap="round"/><path d="M197 124c-1.431 5.518-1.766 5.445-3 11" stroke-width="3.209" stroke="#000" fill="none" stroke-linecap="round"/><path d="M194 135c-.766 3.445-.707 3.485-1 7" stroke-width="3.708" stroke="#000" fill="none" stroke-linecap="round"/><path d="M193 142c-.207 2.485.226 2.519 0 5" stroke-width="4.133" stroke="#000" fill="none" stroke-linecap="round"/><path d="M193 147c-.274 3.019-.726 2.981-1 6" stroke-width="4.14" stroke="#000" fill="none" stroke-linecap="round"/><path d="M182 34c-3 4-3.897 3.561-6 8" stroke-width="5.197" stroke="#000" fill="none" stroke-linecap="round"/><path d="M176 42c-2.397 5.061-1.324 5.553-3 11" stroke-width="3.831" stroke="#000" fill="none" stroke-linecap="round"/><path d="M173 53c-2.324 7.553-2.567 7.478-5 15" stroke-width="3.205" stroke="#000" fill="none" stroke-linecap="round"/><path d="M168 68c-3.067 9.478-3 9.5-6 19" stroke-width="2.748" stroke="#000" fill="none" stroke-linecap="round"/><path d="M162 87c-3 9.5-3.591 9.362-6 19" stroke-width="2.635" stroke="#000" fill="none" stroke-linecap="round"/><path d="M156 106c-1.591 6.362-1.112 6.485-2 13" stroke-width="2.989" stroke="#000" fill="none" stroke-linecap="round"/><path d="M154 119c-.612 4.485-.762 4.485-1 9" stroke-width="3.729" stroke="#000" fill="none" stroke-linecap="round"/><path d="M153 128c-.262 4.985-.52 9.74 0 10" stroke-width="3.538" stroke="#000" fill="none" stroke-linecap="round"/><path d="M153 138c.48.24 1.619-4.432 2-9" stroke-width="4.533" stroke="#000" fill="none" stroke-linecap="round"/><path d="M155 129c.619-7.432 1.482-7.884 0-15" stroke-width="3.462" stroke="#000" fill="none" stroke-linecap="round"/><path d="M155 114c-1.018-4.884-2.036-4.85-5-9" stroke-width="3.491" stroke="#000" fill="none" stroke-linecap="round"/><path d="M150 105c-2.036-2.85-5.248-2.772-5-5" stroke-width="3.768" stroke="#000" fill="none" stroke-linecap="round"/><path d="M145 100c.252-2.272 2.851-3.428 6-4" stroke-width="4.69" stroke="#000" fill="none" stroke-linecap="round"/><path d="M151 96c2.351-.428 2.407 1.481 5 2" stroke-width="4.389" stroke="#000" fill="none" stroke-linecap="round"/><path d="M156 98c2.407.481 4.538-1.154 5 0" stroke-width="4.359" stroke="#000" fill="none" stroke-linecap="round"/><path d="M161 98c.538 1.346-4.254 4.642-3 5" stroke-width="5.012" stroke="#000" fill="none" stroke-linecap="round"/><path d="M158 103c2.246.642 5.272-.899 10-3" stroke-width="5.078" stroke="#000" fill="none" stroke-linecap="round"/><path d="M168 100c4.272-1.899 3.909-2.662 8-5" stroke-width="3.959" stroke="#000" fill="none" stroke-linecap="round"/><path d="M176 95c2.909-1.662 2.836-2.026 6-3" stroke-width="4.011" stroke="#000" fill="none" stroke-linecap="round"/><path d="M182 92c3.336-1.026 5.257-2.162 7-1" stroke-width="4.41" stroke="#000" fill="none" stroke-linecap="round"/><path d="M189 91c1.257.838.297 2.893-1 5" stroke-width="4.945" stroke="#000" fill="none" stroke-linecap="round"/><path d="M188 96c-2.703 4.393-3.778 3.787-7 8" stroke-width="3.803" stroke="#000" fill="none" stroke-linecap="round"/><path d="M181 104c-3.278 4.287-3.076 4.452-6 9" stroke-width="3.479" stroke="#000" fill="none" stroke-linecap="round"/><path d="M175 113c-1.576 2.452-2.192 2.308-3 5" stroke-width="3.947" stroke="#000" fill="none" stroke-linecap="round"/><path d="M172 118c-.692 2.308-1.364 3.864 0 5" stroke-width="4.548" stroke="#000" fill="none" stroke-linecap="round"/><path d="M172 123c1.636 1.364 3 0 6 0" stroke-width="4.723" stroke="#000" fill="none" stroke-linecap="round"/><path d="M178 123c5.5 0 5.535.455 11 0" stroke-width="3.581" stroke="#000" fill="none" stroke-linecap="round"/><path d="M189 123c6.535-.545 6.546-.759 13-2" stroke-width="3.284" stroke="#000" fill="none" stroke-linecap="round"/><path d="M202 121c6.546-1.259 6.514-1.443 13-3" stroke-width="3.19" stroke="#000" fill="none" stroke-linecap="round"/><path d="M285 33l-7 9" stroke-width="5.01" stroke="#000" fill="none" stroke-linecap="round"/><path d="M278 42c-3.5 4.5-3.778 4.314-7 9" stroke-width="3.734" stroke="#000" fill="none" stroke-linecap="round"/><path d="M271 51c-2.278 3.314-2.319 3.357-4 7" stroke-width="3.738" stroke="#000" fill="none" stroke-linecap="round"/><path d="M267 58c-1.319 2.857-1 3-2 6" stroke-width="3.984" stroke="#000" fill="none" stroke-linecap="round"/><path d="M265 64c-1 3-.92 3.029-2 6" stroke-width="4.064" stroke="#000" fill="none" stroke-linecap="round"/><path d="M263 70c-.92 2.529-1.23 2.432-2 5" stroke-width="4.207" stroke="#000" fill="none" stroke-linecap="round"/><path d="M261 75c-.73 2.432.5 3.5-1 5" stroke-width="4.697" stroke="#000" fill="none" stroke-linecap="round"/><path d="M260 80c-1.5 1.5-2.719 1.702-5 1" stroke-width="4.933" stroke="#000" fill="none" stroke-linecap="round"/><path d="M255 81c-4.219-1.298-4.078-2.386-8-5" stroke-width="4.528" stroke="#000" fill="none" stroke-linecap="round"/><path d="M247 76c-2.078-1.386-1.82-1.811-4-3" stroke-width="4.439" stroke="#000" fill="none" stroke-linecap="round"/><path d="M243 73c-3.32-1.811-3.485-1.536-7-3" stroke-width="4.548" stroke="#000" fill="none" stroke-linecap="round"/><path d="M236 70c-2.485-1.036-4.756-.537-5-2" stroke-width="4.906" stroke="#000" fill="none" stroke-linecap="round"/><path d="M231 68c-.256-1.537 1.431-3.021 4-4" stroke-width="5.008" stroke="#000" fill="none" stroke-linecap="round"/><path d="M235 64c7.931-3.021 8.496-2.016 17-4" stroke-width="3.278" stroke="#000" fill="none" stroke-linecap="round"/><path d="M252 60c6.496-1.516 6.436-2.062 13-3" stroke-width="3.188" stroke="#000" fill="none" stroke-linecap="round"/><path d="M265 57c3.936-.562 4 0 8 0" stroke-width="3.562" stroke="#000" fill="none" stroke-linecap="round"/><path d="M273 57h6" stroke-width="3.959" stroke="#000" fill="none" stroke-linecap="round"/><path d="M279 57h6" stroke-width="4.096" stroke="#000" fill="none" stroke-linecap="round"/><path d="M285 57c2.5 0 3.315-1.204 5 0" stroke-width="4.63" stroke="#000" fill="none" stroke-linecap="round"/><path d="M290 57c1.815 1.296.043 3.913 2 5" stroke-width="4.921" stroke="#000" fill="none" stroke-linecap="round"/><path d="M229 116c2.5-.5 2.47-.805 5-1" stroke-width="4.694" stroke="#000" fill="none" stroke-linecap="round"/><path d="M234 115c3.97-.305 4 0 8 0" stroke-width="4.595" stroke="#000" fill="none" stroke-linecap="round"/><path d="M242 115c3 0 3.016.23 6 0" stroke-width="4.23" stroke="#000" fill="none" stroke-linecap="round"/><path d="M248 115c3.516-.27 3.604-.094 7-1" stroke-width="4.094" stroke="#000" fill="none" stroke-linecap="round"/><path d="M255 114c4.104-1.094 4.215-1.108 8-3" stroke-width="3.842" stroke="#000" fill="none" stroke-linecap="round"/><path d="M263 111c2.215-1.108 2.246-1.246 4-3" stroke-width="4.182" stroke="#000" fill="none" stroke-linecap="round"/><path d="M267 108c2.246-2.246 2.37-2.284 4-5" stroke-width="4.065" stroke="#000" fill="none" stroke-linecap="round"/><path d="M271 103c1.37-2.284 1.296-2.417 2-5" stroke-width="4.165" stroke="#000" fill="none" stroke-linecap="round"/><path d="M273 98c.796-2.917 2.406-6.703 1-6" stroke-width="4.572" stroke="#000" fill="none" stroke-linecap="round"/><path d="M274 92c-3.594 1.797-5.789 5.241-11 11" stroke-width="4.549" stroke="#000" fill="none" stroke-linecap="round"/><path d="M263 103c-4.289 4.741-4.403 4.724-8 10" stroke-width="3.519" stroke="#000" fill="none" stroke-linecap="round"/><path d="M255 113c-3.903 5.724-3.52 5.989-7 12" stroke-width="3.271" stroke="#000" fill="none" stroke-linecap="round"/><path d="M248 125c-2.02 3.489-2.104 3.444-4 7" stroke-width="3.586" stroke="#000" fill="none" stroke-linecap="round"/><path d="M244 132c-2.104 3.944-1.191 4.879-4 8" stroke-width="4.135" stroke="#000" fill="none" stroke-linecap="round"/><path d="M240 140c-1.691 1.879-2.407 1.481-5 2" stroke-width="4.602" stroke="#000" fill="none" stroke-linecap="round"/><path d="M235 142c-2.407.481-2.5 0-5 0" stroke-width="4.46" stroke="#000" fill="none" stroke-linecap="round"/><path d="M230 142c-2.5 0-2.525-.248-5 0" stroke-width="4.337" stroke="#000" fill="none" stroke-linecap="round"/><path d="M225 142c-2.525.252-2.486.581-5 1" stroke-width="4.33" stroke="#000" fill="none" stroke-linecap="round"/><path d="M220 143c-3.486.581-6.419 1-7 1" stroke-width="4.537" stroke="#000" fill="none" stroke-linecap="round"/><path d="M213 144c-.419 0 2.494-.53 5-1" stroke-width="4.999" stroke="#000" fill="none" stroke-linecap="round"/><path d="M218 143c5.494-1.03 5.493-1.042 11-2" stroke-width="3.684" stroke="#000" fill="none" stroke-linecap="round"/><path d="M229 141c5.993-1.042 5.976-1.179 12-2" stroke-width="3.449" stroke="#000" fill="none" stroke-linecap="round"/><path d="M241 139c4.976-.679 4.989-.722 10-1" stroke-width="3.392" stroke="#000" fill="none" stroke-linecap="round"/><path d="M251 138c3.989-.222 4 0 8 0" stroke-width="3.635" stroke="#000" fill="none" stroke-linecap="round"/><path d="M259 138h8" stroke-width="3.766" stroke="#000" fill="none" stroke-linecap="round"/><path d="M267 138h6" stroke-width="3.988" stroke="#000" fill="none" stroke-linecap="round"/><path d="M273 138h6" stroke-width="4.105" stroke="#000" fill="none" stroke-linecap="round"/><path d="M279 138c2.5 0 2.525-.248 5 0" stroke-width="4.271" stroke="#000" fill="none" stroke-linecap="round"/><path d="M284 138c2.525.252 2.529.382 5 1" stroke-width="4.267" stroke="#000" fill="none" stroke-linecap="round"/></svg>